<?xml version="1.0" encoding="iso-8859-1"?>
<!-- Generator: Adobe Illustrator 19.0.0, SVG Export Plug-In . SVG Version: 6.00 Build 0)  -->
<svg xmlns="http://www.w3.org/2000/svg" xmlns:xlink="http://www.w3.org/1999/xlink" version="1.1" id="Layer_1" x="0px" y="0px" viewBox="0 0 512 512" style="enable-background:new 0 0 512 512;" xml:space="preserve">
<g>
	<g>
		<path d="M503.716,261.798h-13.324v-19.881c0-4.575-3.708-8.284-8.284-8.284h-56.329c-4.576,0-8.284,3.709-8.284,8.284v19.881    h-6.977V154.111c0-4.575-3.708-8.284-8.284-8.284h-10.409v-19.881c0-4.575-3.708-8.284-8.284-8.284h-56.329    c-4.576,0-8.284,3.709-8.284,8.284v19.881h-24.021v-19.881c0-4.575-3.708-8.284-8.284-8.284h-56.328    c-4.575,0-8.284,3.709-8.284,8.284v19.881H211.6c-4.575,0-8.284,3.709-8.284,8.284v107.687h-8.649v-19.881    c0-4.575-3.709-8.284-8.284-8.284h-56.329c-4.575,0-8.284,3.709-8.284,8.284v19.881H97.748v-19.881    c0-4.575-3.709-8.284-8.284-8.284H33.135c-4.575,0-8.284,3.709-8.284,8.284v19.881H8.284c-4.575,0-8.284,3.709-8.284,8.284    v115.971c0,4.575,3.709,8.284,8.284,8.284h495.432c4.576,0,8.284-3.709,8.284-8.284V270.082    C512,265.507,508.292,261.798,503.716,261.798z M434.063,250.202h39.761v11.597h-39.761V250.202z M335.495,134.231h39.761v11.597    h-39.761V134.231z M238.577,134.231L238.577,134.231h39.76v11.597h-39.76V134.231z M219.883,162.395h10.409h56.328h40.59h56.329    h10.409v99.403H219.883V162.395z M138.338,250.202h39.761v11.597h-39.761V250.202z M41.419,250.202H81.18v11.597H41.419V250.202z     M299.868,377.769h-283.3v-99.403h283.3V377.769z M495.433,377.768h-0.001H316.436v-99.403h178.997V377.768z" fill="#FFFFFF"/>
	</g>
</g>
<g>
</g>
<g>
</g>
<g>
</g>
<g>
</g>
<g>
</g>
<g>
</g>
<g>
</g>
<g>
</g>
<g>
</g>
<g>
</g>
<g>
</g>
<g>
</g>
<g>
</g>
<g>
</g>
<g>
</g>
</svg>
