<svg xmlns="http://www.w3.org/2000/svg" xmlns:xlink="http://www.w3.org/1999/xlink" xmlns:sketch="http://www.bohemiancoding.com/sketch/ns" viewBox="-12 -15 110 125" version="1.1" x="0px" y="0px"><title>1</title><desc>Created with Sketch.</desc><g stroke="none" stroke-width="1" fill="none" fill-rule="evenodd" sketch:type="MSPage"><path d="M92.2705,21.1309444 C92.2705,19.8459444 91.2249444,18.8009444 89.9405,18.8009444 L58.1816111,18.8009444 L25.0155,77.5037222 L55.4016111,77.5037222 L42.1932778,64.2953889 C42.0893889,64.1915 42.0305,64.0503889 42.0305,63.9026111 C42.0305,63.7553889 42.0893889,63.6142778 42.1932778,63.5098333 L52.1716111,53.5315 L46.2121667,53.5315 C45.9049444,53.5315 45.6566111,53.2831667 45.6566111,52.9759444 C45.6566111,52.6692778 45.9049444,52.4203889 46.2121667,52.4203889 L46.4760556,52.4203889 L53.2827222,52.4203889 L60.3199444,45.3831667 L50.0827222,45.3831667 C49.9971667,45.3831667 49.9188333,45.3603889 49.8460556,45.3259444 C49.6588333,45.2365 49.5271667,45.0492778 49.5271667,44.8276111 C49.5271667,44.5209444 49.7760556,44.2720556 50.0827222,44.2720556 L61.4310556,44.2720556 L62.7493889,42.9537222 C62.9666111,42.7370556 63.3182778,42.7370556 63.5349444,42.9537222 L64.8532778,44.2720556 L80.8538333,44.2720556 C81.1610556,44.2720556 81.4093889,44.5209444 81.4093889,44.8276111 L81.4093889,52.9759444 C81.4093889,53.2831667 81.1610556,53.5315 80.8538333,53.5315 L74.1127222,53.5315 L80.4610556,59.8798333 L80.7810556,59.5592778 C80.9893889,59.3509444 81.2721667,59.2337222 81.5666111,59.2337222 C81.8616111,59.2337222 82.1438333,59.3509444 82.3521667,59.5592778 C85.7460556,62.9531667 85.7460556,68.4753889 82.3521667,71.8681667 C81.8077222,72.4137222 81.5071667,73.1376111 81.5071667,73.9087222 C81.5071667,74.6792778 81.8071667,75.4031667 82.3521667,75.9487222 L83.9071667,77.5037222 L89.9405,77.5037222 C91.2249444,77.5037222 92.2705,76.4581667 92.2705,75.1731667 L92.2705,21.1309444 Z M80.7810556,77.5198333 C79.8166111,76.5559444 79.2849444,75.2731667 79.2849444,73.9087222 C79.2849444,72.5442778 79.8166111,71.2615 80.7810556,70.2970556 C83.0405,68.0381667 83.2793889,64.5115 81.4993889,61.9837222 L61.3155,82.1670556 C62.3999444,82.9337222 63.6921667,83.3465 65.0466111,83.3465 C66.7777222,83.3465 68.4055,82.6720556 69.6299444,81.4481667 C70.5943889,80.4837222 71.8771667,79.9526111 73.2410556,79.9526111 C74.6055,79.9526111 75.8882778,80.4837222 76.8527222,81.4481667 L84.8127222,89.4087222 C85.3377222,89.9337222 86.0349444,90.2220556 86.7771667,90.2220556 C87.5188333,90.2220556 88.2166111,89.9337222 88.7410556,89.4087222 C89.2660556,88.8837222 89.5549444,88.1865 89.5549444,87.4442778 C89.5549444,86.7026111 89.2660556,86.0048333 88.7410556,85.4803889 L80.7810556,77.5198333 Z M60.2977222,80.8281667 L80.0682778,61.0581667 L78.1260556,59.1159444 L58.3555,78.8859444 L60.2977222,80.8281667 Z M73.0016111,52.4203889 L80.2982778,52.4203889 L80.2982778,45.3831667 L65.9643889,45.3831667 L73.0016111,52.4203889 Z M77.3405,58.3303889 L63.1421667,44.1320556 L61.5155,45.7592778 L73.6932778,57.9376111 C73.9099444,58.1548333 73.9099444,58.5059444 73.6932778,58.7231667 C73.5843889,58.8315 73.4421667,58.8859444 73.3005,58.8859444 C73.1582778,58.8859444 73.0160556,58.8315 72.9071667,58.7231667 L60.7299444,46.5448333 L58.3721667,48.9020556 L65.8093889,56.3387222 C66.0266111,56.5559444 66.0266111,56.9070556 65.8093889,57.1242778 C65.7010556,57.2326111 65.5588333,57.2870556 65.4166111,57.2870556 C65.2743889,57.2870556 65.1321667,57.2326111 65.0238333,57.1242778 L57.5866111,49.6876111 L55.2299444,52.0448333 L64.6932778,61.5087222 C64.9105,61.7253889 64.9105,62.0770556 64.6932778,62.2942778 C64.5849444,62.4026111 64.4427222,62.4570556 64.3005,62.4570556 C64.1582778,62.4570556 64.0166111,62.4026111 63.9077222,62.2942778 L54.4443889,52.8303889 L52.0871667,55.1876111 L62.7155,65.8159444 C62.9321667,66.0326111 62.9321667,66.3842778 62.7155,66.6015 C62.6066111,66.7098333 62.4649444,66.7642778 62.3227222,66.7642778 C62.1805,66.7642778 62.0382778,66.7098333 61.9299444,66.6015 L51.3016111,55.9731667 L48.9443889,58.3303889 L56.1927222,65.5781667 C56.4093889,65.7953889 56.4093889,66.1465 56.1927222,66.3637222 C56.0838333,66.4720556 55.9416111,66.5265 55.7999444,66.5265 C55.6577222,66.5265 55.5155,66.4720556 55.4071667,66.3637222 L48.1588333,59.1159444 L45.8016111,61.4726111 L53.9855,69.6570556 C54.2027222,69.8737222 54.2027222,70.2253889 53.9855,70.4426111 C53.8771667,70.5509444 53.7349444,70.6053889 53.5927222,70.6053889 C53.4505,70.6053889 53.3082778,70.5509444 53.1999444,70.4426111 L45.0160556,62.2581667 L43.3716111,63.9026111 L57.5699444,78.1003889 L77.3405,58.3303889 Z M29.2060556,67.8270556 L18.5305,67.8270556 L18.5305,59.6787222 L33.8093889,59.6787222 L38.0199444,52.2259444 L18.5305,52.2259444 L18.5305,44.0781667 L42.6238333,44.0781667 L46.8343889,36.6253889 L18.8055,36.6253889 L18.8055,28.4770556 L51.4377222,28.4770556 L56.9049444,18.8009444 L9.55216667,18.8009444 C8.26772222,18.8009444 7.22216667,19.8459444 7.22216667,21.1309444 L7.22216667,75.1731667 C7.22216667,76.4581667 8.26772222,77.5037222 9.55216667,77.5037222 L23.7388333,77.5037222 L29.2060556,67.8270556 Z M94.4927222,21.1309444 L94.4927222,75.1731667 C94.4927222,77.6837222 92.4505,79.7259444 89.9405,79.7259444 L86.1293889,79.7259444 L90.3127222,83.9092778 C91.2571667,84.8531667 91.7771667,86.1087222 91.7771667,87.4442778 C91.7771667,88.7803889 91.2571667,90.0353889 90.3127222,90.9803889 C89.3682778,91.9248333 88.1127222,92.4442778 86.7771667,92.4442778 C85.4416111,92.4442778 84.1860556,91.9248333 83.2416111,90.9803889 L75.2816111,83.0192778 C74.7360556,82.4748333 74.0121667,82.1748333 73.2410556,82.1748333 C72.4705,82.1748333 71.7460556,82.4748333 71.2010556,83.0192778 C69.5571667,84.6631667 67.3716111,85.5687222 65.0466111,85.5687222 C62.7216111,85.5687222 60.5360556,84.6631667 58.8921667,83.0192778 C58.6838333,82.8109444 58.5666111,82.5287222 58.5666111,82.2337222 C58.5666111,81.9392778 58.6838333,81.6565 58.8921667,81.4481667 L59.1193889,81.2209444 L57.6243889,79.7259444 L23.7599444,79.7259444 L19.2893889,87.6392778 C19.1866111,87.8198333 18.9982778,87.9215 18.8049444,87.9215 C18.7121667,87.9215 18.6182778,87.8981667 18.5321667,87.8498333 C18.2649444,87.6981667 18.1705,87.3598333 18.3216111,87.0920556 L22.4832778,79.7259444 L9.55216667,79.7259444 C7.04216667,79.7259444 4.99994444,77.6837222 4.99994444,75.1731667 L4.99994444,21.1309444 C4.99994444,18.6203889 7.04216667,16.5787222 9.55216667,16.5787222 L58.1605,16.5787222 L62.6827222,8.57372222 C62.8343889,8.3065 63.1738333,8.21427778 63.4399444,8.36372222 C63.7071667,8.51483333 63.8016111,8.85316667 63.6505,9.12094444 L59.4371667,16.5787222 L89.9405,16.5787222 C92.4505,16.5787222 94.4927222,18.6203889 94.4927222,21.1309444 L94.4927222,21.1309444 Z M81.9738333,28.4770556 L81.9738333,36.6253889 C81.9738333,36.9320556 81.7255,37.1809444 81.4182778,37.1809444 L53.1543889,37.1809444 C52.8471667,37.1809444 52.5988333,36.9320556 52.5988333,36.6253889 C52.5988333,36.3181667 52.8471667,36.0698333 53.1543889,36.0698333 L53.4210556,36.0698333 L80.8627222,36.0698333 L80.8627222,29.0326111 L57.0649444,29.0326111 C56.9782778,29.0326111 56.8993889,29.0087222 56.8266111,28.9737222 C56.6399444,28.8842778 56.5093889,28.6976111 56.5093889,28.4770556 C56.5093889,28.1698333 56.7577222,27.9215 57.0649444,27.9215 L81.4182778,27.9215 C81.7255,27.9215 81.9738333,28.1698333 81.9738333,28.4770556 L81.9738333,28.4770556 Z" fill="#000000" sketch:type="MSShapeGroup"/></g></svg>