<?xml version="1.0" encoding="iso-8859-1"?>
<!-- Generator: Adobe Illustrator 19.0.0, SVG Export Plug-In . SVG Version: 6.00 Build 0)  -->
<svg xmlns="http://www.w3.org/2000/svg" xmlns:xlink="http://www.w3.org/1999/xlink" version="1.1" id="Capa_1" x="0px" y="0px" viewBox="0 0 511.001 511.001" style="enable-background:new 0 0 511.001 511.001;" xml:space="preserve">
<path d="M505.204,129.487c7.609-22.1,6.942-45.956-1.991-67.523c-8.934-21.567-25.33-38.907-46.338-49.154l-3.389-8.181  c-0.761-1.838-2.221-3.298-4.059-4.059c-1.838-0.761-3.902-0.761-5.74,0l-66.519,27.553c-5.799,2.402-10.316,6.918-12.718,12.718  c-2.402,5.799-2.402,12.187,0,17.986l0.205,0.495L103.149,169.099c-3.825,1.584-6.805,4.563-8.389,8.388s-1.584,8.038,0,11.863  l3.253,7.853l-52.661,21.813l-0.191-0.462c-1.584-3.825-4.563-6.804-8.389-8.389c-3.825-1.583-8.038-1.584-11.863,0l-14.782,6.123  c-3.825,1.584-6.804,4.564-8.389,8.389c-1.584,3.825-1.584,8.038,0,11.863l24.492,59.128c1.584,3.825,4.563,6.804,8.389,8.389  c1.913,0.792,3.922,1.188,5.932,1.188s4.019-0.396,5.932-1.188l14.782-6.123c3.825-1.584,6.804-4.563,8.389-8.389  s1.584-8.038,0-11.863l-0.191-0.462l52.661-21.813l3.253,7.853c1.584,3.825,4.563,6.805,8.389,8.389  c1.909,0.791,3.913,1.187,5.922,1.187c2.018,0,4.041-0.4,5.973-1.2l20.968-8.802c0.394-0.092,0.787-0.209,1.173-0.369  c0.41-0.17,0.792-0.378,1.154-0.608l62.469-26.224c0.869,1.043,1.806,2.027,2.8,2.949L89.07,499.858  c-2.012,3.621-0.707,8.187,2.914,10.198c1.153,0.641,2.403,0.945,3.635,0.945c2.636,0,5.192-1.392,6.563-3.859L162.261,399h85.865  v104.5c0,4.142,3.358,7.5,7.5,7.5s7.5-3.358,7.5-7.5V399h85.865l60.079,108.143c1.371,2.467,3.927,3.859,6.563,3.859  c1.232,0,2.482-0.305,3.635-0.945c3.621-2.012,4.926-6.578,2.914-10.199L277.03,238.583c6.204-5.757,10.096-13.972,10.096-23.083  c0-1.074-0.055-2.135-0.16-3.182l120.166-50.444l0.178,0.429c3.745,9.041,12.516,14.507,21.742,14.507  c2.991,0,6.032-0.575,8.962-1.789l66.519-27.553c3.827-1.585,5.644-5.973,4.059-9.799L505.204,129.487z M55.794,283.806  c-0.079,0.191-0.223,0.251-0.271,0.271l-14.782,6.123c-0.048,0.02-0.19,0.08-0.383,0c-0.191-0.079-0.251-0.223-0.271-0.271  l-24.492-59.128c-0.02-0.047-0.08-0.191,0-0.383c0.079-0.191,0.223-0.251,0.271-0.271l14.782-6.123  c0.03-0.012,0.097-0.04,0.189-0.04c0.056,0,0.121,0.01,0.193,0.04c0.191,0.079,0.251,0.223,0.271,0.271l12.246,29.564l9.184,22.173  l0,0l3.061,7.391C55.813,283.47,55.873,283.615,55.794,283.806z M63.72,263.363l-6.314-15.244l-6.314-15.244l52.661-21.813  l12.628,30.488L63.72,263.363z M489.354,67.705c4.966,11.988,6.897,24.821,5.799,37.519l-28.229-68.15  C476.68,45.276,484.388,55.717,489.354,67.705z M139.886,257.791c-0.048,0.02-0.192,0.079-0.383,0  c-0.191-0.079-0.25-0.223-0.27-0.271l-15.307-36.955l-9.184-22.173c0,0,0-0.001,0-0.001l-6.123-14.781  c-0.02-0.047-0.08-0.191,0-0.383c0.079-0.191,0.223-0.25,0.303-0.284l15.181-6.373l30.997,74.834L139.886,257.791z M272.126,215.5  c0,9.098-7.402,16.5-16.5,16.5s-16.5-7.402-16.5-16.5s7.402-16.5,16.5-16.5S272.126,206.402,272.126,215.5z M170.594,384  l76.732-138.118c0.266,0.073,0.532,0.143,0.8,0.208V384H170.594z M340.657,384h-77.531V246.09c0.268-0.066,0.534-0.135,0.799-0.208  L340.657,384z M281.913,198.171c-5.642-8.53-15.316-14.171-26.287-14.171c-17.369,0-31.5,14.131-31.5,31.5  c0,2.275,0.248,4.492,0.708,6.631l-55.903,23.468l-30.998-74.834l232.461-97.583l30.997,74.834L281.913,198.171z M432.274,161.162  c-4.332,1.795-9.312-0.27-11.106-4.6l-42.86-103.475c-0.869-2.097-0.869-4.407,0-6.505c0.869-2.098,2.502-3.731,4.6-4.6  l59.59-24.683l49.366,119.18L432.274,161.162z" fill="#FFFFFF"/>
<g>
</g>
<g>
</g>
<g>
</g>
<g>
</g>
<g>
</g>
<g>
</g>
<g>
</g>
<g>
</g>
<g>
</g>
<g>
</g>
<g>
</g>
<g>
</g>
<g>
</g>
<g>
</g>
<g>
</g>
</svg>
