<?xml version="1.0" encoding="utf-8"?>
<!-- Generator: Adobe Illustrator 15.0.0, SVG Export Plug-In . SVG Version: 6.00 Build 0)  -->
<!DOCTYPE svg PUBLIC "-//W3C//DTD SVG 1.1//EN" "http://www.w3.org/Graphics/SVG/1.1/DTD/svg11.dtd">
<svg version="1.1" id="Layer_1" xmlns="http://www.w3.org/2000/svg" xmlns:xlink="http://www.w3.org/1999/xlink" x="0px" y="0px" height="400px" viewBox="300 600 1000 350" xml:space="preserve">
<g>
	<path fill="#6A1031" d="M834.555,812.799c-2.255-1.377-3.852-2.818-4.792-4.322c-0.939-1.503-1.409-3.194-1.409-5.073
		c0-2.003,0.564-3.693,1.691-5.074c1.127-1.377,2.566-2.067,4.321-2.067c1.626,0,4.196,1.005,7.704,3.007
		c3.758,2.005,7.422,3.635,10.992,4.885c3.57,1.254,8.047,1.879,13.435,1.879c6.013,0,10.71-1.063,14.093-3.194
		c3.382-2.129,5.073-5.135,5.073-9.02c0-2.504-0.658-4.51-1.974-6.012c-1.315-1.503-3.602-2.849-6.858-4.04
		c-3.259-1.189-8.08-2.472-14.468-3.853c-11.025-2.378-18.949-5.604-23.77-9.677c-4.824-4.069-7.234-9.612-7.234-16.629
		c0-5.384,1.565-10.241,4.698-14.562c3.13-4.322,7.451-7.672,12.965-10.053c5.511-2.378,11.773-3.57,18.79-3.57
		c5.009,0,9.895,0.658,14.657,1.973c4.759,1.316,8.954,3.227,12.589,5.731c4.133,2.757,6.201,5.951,6.201,9.583
		c0,2.006-0.596,3.697-1.785,5.073c-1.192,1.38-2.601,2.067-4.228,2.067c-1.127,0-2.254-0.25-3.381-0.752
		c-1.128-0.499-2.631-1.315-4.51-2.442c-3.382-2.002-6.547-3.57-9.489-4.698c-2.945-1.127-6.609-1.691-10.992-1.691
		c-5.262,0-9.489,1.127-12.683,3.382c-3.195,2.254-4.792,5.326-4.792,9.207c0,3.509,1.471,6.233,4.416,8.174
		c2.942,1.943,8.485,3.791,16.629,5.543c8.391,1.756,14.968,3.758,19.729,6.013c4.76,2.255,8.174,5.044,10.241,8.361
		c2.067,3.321,3.1,7.549,3.1,12.684c0,8.145-3.414,14.688-10.24,19.636c-6.829,4.95-15.942,7.422-27.34,7.422
		C853.157,820.691,842.696,818.061,834.555,812.799z"/>
	<path fill="#6A1031" d="M994.927,731.438c6.201,4.011,11.022,9.648,14.469,16.911c3.443,7.267,5.167,15.661,5.167,25.179
		c0,9.395-1.69,17.663-5.073,24.803c-3.382,7.141-8.173,12.654-14.374,16.536c-6.2,3.884-13.313,5.825-21.327,5.825
		c-6.891,0-12.965-1.471-18.225-4.416c-5.262-2.942-9.272-7.169-12.027-12.683v41.902c0,2.631-0.846,4.727-2.537,6.295
		c-1.691,1.564-3.916,2.348-6.67,2.348c-2.883,0-5.232-0.816-7.046-2.442c-1.817-1.629-2.725-3.823-2.725-6.577v-110.11
		c0-2.753,0.876-4.979,2.631-6.67c1.753-1.691,4.069-2.537,6.953-2.537c2.754,0,5.009,0.846,6.765,2.537
		c1.752,1.691,2.63,3.917,2.63,6.67v7.704c2.754-5.51,6.765-9.771,12.027-12.777c5.26-3.006,11.334-4.509,18.225-4.509
		C981.68,725.425,988.727,727.43,994.927,731.438z M988.444,797.297c4.51-5.573,6.766-13.496,6.766-23.77
		c0-10.396-2.288-18.476-6.859-24.239c-4.574-5.761-10.931-8.644-19.072-8.644c-8.268,0-14.627,2.818-19.071,8.455
		c-4.448,5.637-6.671,13.655-6.671,24.052c0,10.399,2.223,18.414,6.671,24.051c4.444,5.637,10.804,8.456,19.071,8.456
		S983.935,802.873,988.444,797.297z"/>
	<path fill="#6A1031" d="M1171.646,762.442v48.854c0,2.883-0.878,5.105-2.631,6.67c-1.756,1.565-4.071,2.35-6.953,2.35
		c-2.757,0-5.011-0.784-6.763-2.35c-1.756-1.564-2.632-3.787-2.632-6.67V762.63c0-7.639-1.379-13.183-4.134-16.629
		c-2.757-3.443-7.079-5.167-12.965-5.167c-6.892,0-12.34,2.349-16.348,7.046c-4.01,4.698-6.013,11.119-6.013,19.26v44.157
		c0,2.883-0.879,5.105-2.632,6.67c-1.755,1.565-4.071,2.35-6.952,2.35c-2.757,0-5.012-0.784-6.764-2.35
		c-1.756-1.564-2.631-3.787-2.631-6.67V762.63c0-7.639-1.379-13.183-4.133-16.629c-2.758-3.443-7.079-5.167-12.966-5.167
		c-6.891,0-12.372,2.349-16.441,7.046c-4.072,4.698-6.106,11.119-6.106,19.26v44.157c0,2.883-0.879,5.105-2.632,6.67
		c-1.755,1.565-4.01,2.35-6.763,2.35c-2.757,0-5.045-0.784-6.858-2.35c-1.817-1.564-2.726-3.787-2.726-6.67v-76.476
		c0-2.754,0.939-4.948,2.818-6.577c1.88-1.626,4.134-2.442,6.766-2.442c2.63,0,4.791,0.784,6.481,2.349
		c1.691,1.568,2.536,3.729,2.536,6.482v6.952c2.755-5.261,6.577-9.268,11.462-12.025c4.887-2.754,10.523-4.134,16.912-4.134
		c7.015,0,12.808,1.441,17.381,4.322c4.571,2.883,7.985,7.328,10.24,13.341c2.755-5.385,6.826-9.677,12.214-12.871
		c5.384-3.195,11.522-4.792,18.415-4.792C1161.374,725.425,1171.646,737.765,1171.646,762.442z"/>
</g>
<g>
	<polyline fill="#FF9269" points="521.076,836.212 483.6,821.507 458.824,791.472 462.132,768.938 485.488,788.713 510.895,798.306 
		522.876,800.867 526.24,780.16 499.604,761.079 488.625,734.685 489.297,709.164 500.544,716.179 515.171,735.312 534.105,751.936 
		551.147,754.144 555.748,742.609 548.787,707.396 557.943,681.99 573.237,694.318 574.882,714.924 581.453,728.705 608.727,727 
		642.004,727 654.236,716.414 681.211,690.733 690.308,686.362 687.594,713.346 676.962,742.605 687.594,750.051 706.617,744.711 
		745.248,720.568 726.064,761.078 705.17,776.574 709.128,788.71 732.651,780.159 780.014,785.498 766.526,802.869 716.262,817.213 
			"/>
	<polygon fill="#FF9269" points="544.194,782.143 563.885,740.08 606.416,729.401 634.484,727.04 670.501,737.638 691.114,757.614 
		705.146,776.524 718.223,805.019 718.223,834.115 702.424,852.646 663.95,867.701 601.306,875.698 554.182,853.116 	"/>
	<path fill="#ED6237" d="M581.453,731.548l7.248,5.41c0,0-57.568,25.296-27.935,93.393c20.687,47.539,69.634,36.118,69.634,36.118
		l-58.476,3.717l-25.9-9.41l-21.329-10.822l-3.264-20.312l-2.068-16.542l9.096-31.68l17.879-28.543l21.061-15.369L581.453,731.548z"
		/>
	<circle fill="#ED6237" cx="565.569" cy="841.888" r="14.421"/>
	<circle fill="#ED6237" cx="582.994" cy="859.34" r="6.363"/>
	<circle fill="#ED6237" cx="554.137" cy="815.114" r="6.363"/>
	<circle fill="#ED6237" cx="589.307" cy="842.477" r="4.389"/>
	<path fill="#FFFFFF" d="M617.453,733.711c0,0,71.844-4.071,78.187,73.428c4.072,49.761-37.422,56.715-37.422,56.715l27.573,0.833
		L716,845.536v-36.828l-13.746-38.585l-38.389-34.413l-29.424-8.67L617.453,733.711"/>
	<circle fill="#FFFFFF" cx="695.425" cy="830.114" r="6.999"/>
	<circle fill="#FFFFFF" cx="695.012" cy="809.021" r="4.705"/>
	<circle fill="#FFFFFF" cx="684.818" cy="771.227" r="3.607"/>
	<circle fill="#FFFFFF" cx="687.594" cy="842.411" r="10.632"/>
	<path fill="#ED6237" d="M503.053,801.369c0,0-3.449,14.197-3.449,21.746s19.76,10.866,19.76,10.866l1.785-27.808l4.488-24.44
		l-10.466-9.503c0,0,10.779-19.356,18.308-22.178c7.527-2.822,10.716,4.091,10.716,4.091l-8.207,17.083l-16.624,30.143"/>
	<polygon fill="#ED6237" points="555.748,742.609 582.993,728.692 581.453,721.825 554.182,727.04 	"/>
	<path fill="#FFFFFF" d="M749.893,797.119c0,0,5.636-4.639,0-7.974s-24.455-7.099-24.455-7.099l-15.684,3.137l-6.125-11.721
		l12.712-12.385l10.179-11.702c0,0,1.427-7.938-6.101-6.767c-7.528,1.172-29.059,4.061-29.059,4.061l-10.149-1.085l-4.249-9.806
		l2.337-17.858c0,0-0.899-12.335-3.764-9.276c-2.863,3.059,3.764-11.285,3.764-11.285l11.009-2.823l-15.49,47.284l9.184,5.716
		l62.765-26.969l-17.251,36.699l-27.091,11.605l5.135,17.565l49.558-3.764l22.897,2.823l-17.251,18.818L749.893,797.119"/>
	<circle fill="#ED6237" cx="502.366" cy="805.736" r="8.932"/>
	<circle fill="#ED6237" cx="516.844" cy="767.515" r="5.437"/>
	<circle fill="#ED6237" cx="572.615" cy="722.643" r="3.619"/>
	<circle fill="#FF9269" cx="689.573" cy="789.781" r="5.852"/>
	<circle fill="#FF9269" cx="695.561" cy="818.337" r="4.643"/>
	<circle fill="#FF9269" cx="559.136" cy="824.721" r="4.583"/>
	<circle fill="#B6E9CF" cx="621.61" cy="675.831" r="12.883"/>
	<circle fill="#B6E9CF" cx="670.346" cy="633.945" r="26.945"/>
	<circle fill="#B6E9CF" cx="766.623" cy="858.488" r="21.375"/>
	<circle fill="#B6E9CF" cx="488.392" cy="876.432" r="29.568"/>
	<circle fill="#B6E9CF" cx="517.183" cy="677.764" r="14.817"/>
	<circle fill="#B6E9CF" cx="596.675" cy="920.44" r="20.44"/>
	<circle fill="#B6E9CF" cx="700.786" cy="891.076" r="11.214"/>
	<g>
		<path fill="#6A1031" d="M512.149,823.921c0.045,12.262,4.494,23.837,13.296,32.469c9.099,8.923,21.428,14.018,33.557,17.265
			c15.009,4.02,30.75,5.442,46.235,5.978c16.317,0.563,32.778,0.164,48.977-1.978c14.172-1.875,28.298-4.933,41.112-11.492
			c5.264-2.693,10.24-6.177,14.437-10.351c4.35-4.326,7.514-9.413,9.831-15.056c4.4-10.711,3.246-23.019,1.696-34.207
			c-1.535-11.083-4.835-21.814-9.605-31.928c-4.926-10.441-11.884-20.068-20.324-27.951c-9.687-9.045-21.271-15.633-33.769-19.945
			c-14.738-5.086-30.73-6.634-46.244-6.034c-15.389,0.595-30.507,3.678-44.572,10.003c-11.246,5.058-21.492,12.633-29.628,21.898
			c-7.979,9.088-13.89,19.579-18.083,30.895C514.305,796.331,512.168,810.248,512.149,823.921c-0.005,3.591,3,6.587,6.587,6.587
			c3.594,0,6.582-2.996,6.587-6.587c0.003-2.644,0.091-5.286,0.263-7.924c0.084-1.279,0.193-2.556,0.318-3.832
			c0.063-0.64,0.134-1.28,0.207-1.919c0.037-0.32,0.076-0.641,0.115-0.961c0.215-1.734-0.184,1.312-0.023,0.15
			c0.738-5.376,1.88-10.696,3.402-15.905c0.768-2.626,1.649-5.218,2.625-7.773c0.235-0.615,0.479-1.227,0.727-1.837
			c0.123-0.305,0.25-0.609,0.377-0.914c-0.82,1.97-0.33,0.788-0.146,0.361c0.568-1.313,1.173-2.609,1.802-3.896
			c2.435-4.987,5.346-9.739,8.674-14.179c0.27-0.36,1.061-1.378-0.213,0.264c0.207-0.266,0.416-0.529,0.626-0.794
			c0.421-0.528,0.851-1.05,1.283-1.569c0.944-1.13,1.925-2.229,2.929-3.307c1.959-2.104,4.043-4.091,6.213-5.975
			c1.063-0.921,2.153-1.807,3.261-2.671c-1.784,1.392,0.231-0.155,0.653-0.466c0.676-0.494,1.361-0.973,2.051-1.446
			c2.522-1.73,5.152-3.303,7.848-4.747c1.335-0.715,2.693-1.387,4.064-2.031c0.696-0.328,1.4-0.643,2.105-0.953
			c0.381-0.167,1.689-0.715-0.143,0.053c0.482-0.202,0.967-0.397,1.453-0.591c3.135-1.252,6.345-2.312,9.592-3.231
			c3.452-0.977,6.959-1.751,10.488-2.382c0.883-0.157,1.768-0.3,2.654-0.438c0.448-0.069,0.897-0.134,1.347-0.198
			c1.591-0.229-1.538,0.197,0.065-0.009c2.018-0.259,4.042-0.458,6.07-0.622c8.14-0.657,16.358-0.589,24.489,0.167
			c0.924,0.086,1.846,0.187,2.768,0.293c0.455,0.053,0.909,0.11,1.364,0.168c1.593,0.201-1.533-0.215,0.047,0.009
			c1.902,0.27,3.797,0.597,5.684,0.961c3.457,0.667,6.878,1.52,10.251,2.529c1.55,0.464,3.085,0.975,4.609,1.516
			c0.747,0.265,1.489,0.544,2.229,0.827c0.367,0.141,0.731,0.286,1.097,0.431c0.411,0.163,2.167,0.898,0.228,0.079
			c2.906,1.228,5.74,2.625,8.499,4.158c2.647,1.47,5.206,3.098,7.679,4.844c0.582,0.41,1.154,0.832,1.725,1.257
			c0.351,0.261,1.405,1.075-0.209-0.173c0.278,0.215,0.554,0.434,0.83,0.652c1.184,0.94,2.336,1.92,3.467,2.924
			c2.136,1.896,4.159,3.916,6.087,6.022c0.912,0.997,1.794,2.021,2.657,3.062c0.429,0.517,0.849,1.041,1.266,1.568
			c0.798,1.01-0.991-1.296-0.21-0.274c0.271,0.354,0.536,0.712,0.802,1.069c3.277,4.423,6.101,9.174,8.516,14.117
			c0.573,1.173,1.116,2.361,1.641,3.557c0.131,0.298,0.26,0.598,0.388,0.896c-0.843-1.971-0.341-0.805-0.163-0.372
			c0.288,0.7,0.564,1.405,0.837,2.112c0.968,2.512,1.821,5.066,2.588,7.646c1.509,5.077,2.612,10.272,3.368,15.515
			c0.071,0.494,0.234,1.744-0.065-0.51c0.042,0.309,0.08,0.619,0.118,0.93c0.077,0.617,0.146,1.236,0.213,1.855
			c0.144,1.333,0.258,2.668,0.354,4.005c0.182,2.528,0.268,5.064,0.278,7.6c0.005,1.379-0.048,2.755-0.157,4.129
			c-0.046,0.575-0.361,3.05-0.025,0.589c-0.104,0.76-0.237,1.514-0.385,2.266c-0.244,1.255-0.566,2.492-0.938,3.715
			c-0.182,0.6-0.386,1.19-0.599,1.779c-0.105,0.291-0.218,0.58-0.331,0.869c-0.611,1.566,0.52-1.18,0.065-0.152
			c-1.028,2.328-2.339,4.525-3.837,6.58c-0.278,0.383-1.032,1.333,0.289-0.359c-0.188,0.242-0.383,0.479-0.578,0.717
			c-0.391,0.477-0.799,0.938-1.212,1.396c-0.907,1.005-1.877,1.952-2.878,2.864c-0.471,0.428-0.954,0.84-1.442,1.248
			c-0.246,0.205-0.497,0.406-0.747,0.607c-0.98,0.785,1.315-1.001,0.311-0.238c-1.141,0.865-2.326,1.669-3.532,2.438
			c-2.443,1.557-5.015,2.904-7.643,4.12c-0.659,0.306-1.324,0.595-1.991,0.882c2.087-0.896-0.333,0.12-0.823,0.313
			c-1.535,0.604-3.091,1.152-4.654,1.673c-3.171,1.056-6.397,1.937-9.646,2.715c-3.465,0.829-6.965,1.507-10.479,2.091
			c-1.761,0.294-3.528,0.554-5.297,0.796c2.066-0.283-0.909,0.108-1.412,0.169c-1.07,0.129-2.143,0.247-3.215,0.36
			c-16.382,1.735-33.007,1.876-49.447,0.992c-3.971-0.214-7.937-0.52-11.894-0.915c-1.834-0.184-3.664-0.395-5.493-0.624
			c-0.378-0.048-1.967-0.261-0.046-0.001c-0.445-0.061-0.891-0.123-1.336-0.187c-1.027-0.146-2.053-0.304-3.078-0.467
			c-6.828-1.087-13.604-2.589-20.19-4.708c-1.454-0.469-2.895-0.978-4.324-1.514c-0.696-0.263-1.388-0.537-2.078-0.816
			c-0.405-0.164-1.665-0.707,0.22,0.097c-0.445-0.189-0.887-0.386-1.328-0.585c-2.647-1.188-5.217-2.549-7.685-4.076
			c-1.127-0.698-2.222-1.445-3.294-2.225c-0.264-0.191-0.522-0.389-0.781-0.584c1.676,1.27,0.678,0.521,0.316,0.232
			c-0.58-0.465-1.145-0.95-1.702-1.443c-0.938-0.83-1.832-1.711-2.692-2.622c-0.426-0.449-0.834-0.913-1.237-1.382
			c-0.2-0.234-0.396-0.472-0.591-0.709c-1.053-1.287,0.757,1.012,0.088,0.123c-1.103-1.466-2.076-3.025-2.942-4.641
			c-0.437-0.813-0.829-1.648-1.201-2.492c0.954,2.168,0.159,0.353-0.032-0.153c-0.186-0.488-0.354-0.983-0.518-1.479
			c-0.641-1.941-1.092-3.943-1.414-5.961c-0.28-1.75,0.151,1.27,0.011,0.091c-0.067-0.565-0.116-1.132-0.161-1.699
			c-0.093-1.169-0.126-2.343-0.13-3.516c-0.013-3.591-2.986-6.587-6.587-6.587C515.155,817.334,512.137,820.33,512.149,823.921z"/>
	</g>
	<g>
		<path fill="#6A1031" d="M625.65,835.564c-0.329,0.32-0.663,0.631-1.008,0.934c-0.48,0.394-0.464,0.387,0.051-0.019
			c-0.24,0.175-0.484,0.345-0.733,0.508c-0.366,0.247-0.751,0.466-1.136,0.685c-0.232,0.132-1.964,0.916-0.662,0.379
			c-0.932,0.385-1.907,0.652-2.89,0.871c-0.261,0.059-1.692,0.251-0.234,0.073c-0.567,0.069-1.139,0.091-1.709,0.104
			c-0.429,0.01-0.856-0.011-1.284-0.031c-0.285-0.018-0.569-0.042-0.854-0.073c0.75,0.108,0.813,0.112,0.188,0.01
			c-0.992-0.17-1.96-0.462-2.906-0.798c-1.371-0.488,1.032,0.493-0.289-0.131c-0.531-0.251-1.038-0.549-1.54-0.851
			c-0.211-0.127-1.735-1.25-0.708-0.438c-0.479-0.378-0.92-0.799-1.355-1.224c-2.143-2.087-5.628-2.135-7.764,0
			c-2.094,2.095-2.142,5.676,0,7.763c9.065,8.835,23.531,8.835,32.597,0c2.142-2.087,2.094-5.668,0-7.763
			C631.277,833.43,627.792,833.478,625.65,835.564L625.65,835.564z"/>
	</g>
	<path fill="#6A1031" d="M608.035,796.064c-3.356,16.251-18.959,24.023-33.495,20.18c-14.535-3.844-23.811-16.044-19.142-34.1
		c3.881-15.01,18.959-24.023,33.494-20.18C603.429,765.809,611.172,780.881,608.035,796.064z"/>
	<path fill="#6A1031" d="M625.445,796.064c3.356,16.251,18.96,24.023,33.495,20.18c14.536-3.844,23.811-16.044,19.143-34.1
		c-3.881-15.01-18.96-24.023-33.495-20.18C630.052,765.809,622.309,780.881,625.445,796.064z"/>
	<g>
		<path fill="#6A1031" d="M521.432,829.642c-3.814-0.604-7.529-2.117-11.075-3.589c-1.137-0.472,1.571,0.669,0.425,0.178
			c-0.293-0.125-0.586-0.254-0.879-0.382c-0.604-0.264-1.203-0.535-1.803-0.809c-1.37-0.626-2.727-1.28-4.074-1.95
			c-2.799-1.391-5.545-2.885-8.245-4.455c-2.842-1.653-5.618-3.417-8.328-5.28c-1.311-0.901-2.598-1.835-3.868-2.791
			c-0.32-0.241-1.452-1.122,0.076,0.065c-0.311-0.242-0.619-0.487-0.928-0.733c-0.715-0.569-1.419-1.154-2.117-1.745
			c-2.414-2.045-4.703-4.236-6.825-6.583c-0.487-0.54-0.96-1.093-1.427-1.651c-0.229-0.275-0.453-0.556-0.678-0.836
			c-0.834-1.044,0.965,1.271,0.166,0.211c-0.894-1.19-1.714-2.434-2.471-3.715c-0.447-0.759-0.855-1.539-1.24-2.332
			c-0.221-0.451-0.872-1.989,0.006,0.102c-0.164-0.391-0.312-0.787-0.457-1.185c-0.939-2.575-1.602-5.28-2.309-7.927
			c-1.25-4.689-2.311-9.434-3.078-14.227c-0.069-0.437-0.134-0.874-0.198-1.312c-0.25-1.708,0.172,1.339,0.028,0.234
			c-0.092-0.716-0.172-1.433-0.244-2.149c-0.117-1.15-0.201-2.304-0.248-3.458c-0.035-0.862-0.067-1.741,0.006-2.603
			c-3.748,1.553-7.496,3.105-11.244,4.658c4.544,5.682,9.487,11.081,14.594,16.258c4.314,4.373,8.83,8.568,13.676,12.349
			c5.021,3.917,10.213,7.453,16.258,9.595c3.08,1.092,6.438,1.455,9.645,2.002c3.152,0.537,6.321,1.018,9.5,1.37
			c2.245,0.249,5.087,0.571,7.074-0.778c2.965-2.013,4.271-5.756,2.363-9.012c-1.723-2.939-6.037-4.383-9.012-2.363
			c-0.166,0.113,2.192-0.773,1.443-0.626c1.151-0.227,2.246-0.201,1.071-0.19c-1.287,0.012-2.582-0.156-3.856-0.311
			c-0.26-0.031-0.52-0.065-0.777-0.099c2.343,0.304,1.101,0.148,0.587,0.076c-0.68-0.097-1.358-0.2-2.036-0.305
			c-1.922-0.298-3.838-0.63-5.751-0.973c-1.735-0.311-3.493-0.576-5.2-1.019c-0.523-0.135-1.037-0.302-1.549-0.477
			c-0.264-0.09-0.526-0.189-0.788-0.289c-1.511-0.573,1.267,0.561,0.239,0.109c-2.441-1.07-4.738-2.462-6.949-3.943
			c-1.166-0.782-2.301-1.609-3.422-2.455c-1.073-0.811,1.256,0.98,0.19,0.148c-0.287-0.224-0.571-0.451-0.856-0.678
			c-0.67-0.535-1.332-1.084-1.99-1.635c-4.664-3.908-9.025-8.177-13.225-12.576c-4.139-4.334-8.169-8.813-11.913-13.494
			c-1.421-1.778-4.338-2.264-6.409-1.695c-3.008,0.828-4.584,3.396-4.836,6.352c-0.17,2.002,0.047,4.072,0.242,6.061
			c0.676,6.906,2.077,13.725,3.826,20.432c1.816,6.969,3.95,13.511,8.362,19.289c4.417,5.785,9.651,10.525,15.401,14.956
			c7.1,5.473,14.909,10.055,22.978,13.94c3.698,1.781,7.485,3.414,11.337,4.838c2.367,0.875,4.811,1.713,7.311,2.109
			c3.543,0.561,7.072-0.854,8.103-4.602C526.903,834.578,524.982,830.205,521.432,829.642L521.432,829.642z"/>
	</g>
	<g>
		<path fill="#6A1031" d="M528.586,776.426c-1.986-1.25-3.945-2.539-5.874-3.875c-0.921-0.637-1.829-1.293-2.733-1.953
			c-0.441-0.324-0.879-0.652-1.316-0.982c-0.592-0.451-0.575-0.436,0.051,0.047c-0.28-0.218-0.56-0.437-0.838-0.657
			c-3.253-2.567-6.346-5.337-9.238-8.305c-1.268-1.3-2.479-2.651-3.648-4.038c-0.314-0.373-2.089-2.623-0.868-1.037
			c-0.599-0.776-1.171-1.573-1.731-2.378c-1.879-2.694-3.505-5.562-4.855-8.556c-0.178-0.395-0.7-1.68,0.076,0.197
			c-0.143-0.343-0.275-0.688-0.408-1.033c-0.264-0.684-0.502-1.375-0.73-2.07c-0.486-1.473-0.875-2.977-1.199-4.494
			c-0.146-0.689-0.267-1.383-0.378-2.078c-0.214-1.33,0.211,1.699,0.044,0.365c-0.044-0.346-0.078-0.693-0.113-1.04
			c-0.149-1.498-0.197-3.004-0.182-4.508c0.015-1.391,0.115-2.779,0.267-4.162c0.052-0.473,0.25-1.796-0.056,0.365
			c0.049-0.347,0.106-0.693,0.164-1.039c0.135-0.813,0.301-1.62,0.479-2.424c0.311-1.4,0.7-2.781,1.132-4.148
			c0.22-0.695,0.462-1.384,0.71-2.07c0.193-0.535,1.311-3.26,0.43-1.18c0.692-1.636,1.476-3.232,2.307-4.801
			c-4.013-0.524-8.025-1.049-12.039-1.574c1.379,5.091,3.715,10.051,6.203,14.676c5.445,10.119,13.067,18.937,22.428,25.605
			c7.035,5.011,15.338,8.427,23.803,10.068c3.521,0.683,7.096-0.942,8.103-4.601c0.896-3.257-1.073-7.418-4.601-8.103
			c-3.459-0.671-6.842-1.628-10.131-2.892c-0.374-0.145-0.746-0.296-1.117-0.448c1.816,0.743,0.49,0.203,0.115,0.036
			c-0.715-0.316-1.42-0.656-2.121-1.002c-1.479-0.731-2.915-1.543-4.322-2.401c-1.258-0.767-2.477-1.595-3.67-2.457
			c-0.293-0.211-0.582-0.428-0.87-0.645c-1.075-0.807,1.251,0.982,0.2,0.153c-0.646-0.51-1.277-1.04-1.902-1.577
			c-2.143-1.84-4.139-3.846-6.016-5.955c-0.854-0.96-1.674-1.951-2.473-2.958c-0.77-0.97,1.012,1.322,0.264,0.344
			c-0.188-0.246-0.373-0.494-0.557-0.742c-0.424-0.568-0.834-1.145-1.239-1.725c-1.351-1.932-2.598-3.935-3.763-5.984
			c-1.004-1.767-1.932-3.577-2.795-5.416c-0.355-0.756-0.695-1.519-1.024-2.286c-0.386-0.896,0.736,1.754,0.365,0.868
			c-0.071-0.169-0.14-0.339-0.21-0.509c-0.152-0.371-0.299-0.744-0.445-1.118c-0.565-1.452-1.113-2.929-1.521-4.435
			c-1.448-5.347-9.332-6.683-12.039-1.573c-6.32,11.933-9.029,25.331-5.73,38.6c3.67,14.763,14.335,26.914,26.008,36.125
			c4.159,3.282,8.476,6.331,12.96,9.152c3.042,1.913,7.243,0.656,9.012-2.363C532.808,782.264,531.619,778.333,528.586,776.426
			L528.586,776.426z"/>
	</g>
	<g>
		<path fill="#6A1031" d="M560.533,741.716c-0.586-1.963-1-3.986-1.391-5.995c-0.202-1.042-0.384-2.087-0.554-3.134
			c-0.096-0.59-0.185-1.182-0.271-1.773c-0.07-0.489-0.234-1.732,0.063,0.497c-0.043-0.325-0.083-0.65-0.123-0.976
			c-0.365-2.926-0.598-5.868-0.729-8.813c-0.151-3.422-0.123-6.851,0.059-10.271c0.098-1.851,0.259-3.698,0.461-5.54
			c0.052-0.473,0.11-0.945,0.169-1.417c-0.231,1.853-0.022,0.191,0.027-0.156c0.142-0.967,0.305-1.931,0.477-2.894
			c0.716-4.012,1.741-7.965,3.025-11.832c0.334-1.003,0.697-1.997,1.071-2.987c0.188-0.5,0.387-0.997,0.586-1.493
			c0.674-1.678-0.549,1.252,0.176-0.415c0.951-2.192,2.03-4.326,3.188-6.416c-4.013-0.524-8.025-1.049-12.039-1.573
			c1.488,7.196,3.523,14.313,5.806,21.293c4.054,12.398,9.091,25.422,17.917,35.267c0.282,0.314,0.574,0.62,0.868,0.923
			c2.499,2.578,6.808,2.508,9.315,0c2.567-2.567,2.497-6.739,0-9.315c-0.904-0.933-1.75-1.912-2.557-2.929
			c1.438,1.813-0.084-0.143-0.396-0.583c-0.479-0.67-0.932-1.357-1.379-2.048c-1.688-2.613-3.157-5.365-4.52-8.159
			c-0.68-1.396-1.32-2.81-1.941-4.233c-0.157-0.357-0.311-0.717-0.463-1.076c0.779,1.829,0.221,0.516,0.063,0.131
			c-0.348-0.841-0.682-1.687-1.013-2.535c-1.151-2.949-2.202-5.938-3.191-8.945c-2.294-6.974-4.317-14.099-5.806-21.293
			c-1.166-5.636-9.379-6.376-12.039-1.573c-8.306,14.997-11.633,32.219-11.068,49.263c0.27,8.136,1.17,16.663,3.506,24.504
			c1.023,3.438,4.586,5.566,8.102,4.6C559.338,748.883,561.558,745.156,560.533,741.716L560.533,741.716z"/>
	</g>
	<g>
		<path fill="#6A1031" d="M710.775,791.407c4.478-1.755,9.199-3.013,13.912-3.933c0.932-0.182,1.869-0.336,2.807-0.479
			c1.651-0.253-1.502,0.182,0.163-0.019c0.48-0.059,0.964-0.104,1.446-0.149c2.066-0.194,4.146-0.233,6.219-0.114
			c0.667,0.038,1.333,0.112,1.996,0.195c-2.501-0.313-0.02,0.021,0.558,0.123c1.582,0.276,3.152,0.617,4.721,0.964
			c14.112,3.119,31.752,8.102,43.643-3.179c-3.669-2.136-7.339-4.271-11.009-6.408c-0.339,2.04-0.975,4.053-1.682,5.99
			c-0.155,0.427-0.321,0.85-0.491,1.271c-0.398,0.988,0.722-1.685,0.294-0.692c-0.098,0.226-0.199,0.449-0.301,0.674
			c-0.466,1.025-0.988,2.025-1.549,3.002c-0.55,0.958-1.16,1.881-1.811,2.774c-0.686,0.941,1.065-1.35,0.339-0.433
			c-0.179,0.225-0.363,0.443-0.549,0.662c-0.438,0.518-0.904,1.009-1.384,1.488c-0.416,0.417-0.857,0.81-1.305,1.193
			c-0.364,0.311-1.315,1.025,0.398-0.285c-0.239,0.184-0.487,0.356-0.734,0.529c-0.503,0.351-1.028,0.666-1.561,0.97
			c-0.531,0.303-2.929,1.335-0.702,0.423c-1.238,0.508-2.538,0.853-3.851,1.102c-0.468,0.09-1.785,0.23,0.345-0.029
			c-0.363,0.045-0.729,0.07-1.096,0.098c-0.897,0.063-1.799,0.053-2.697,0.017c-7.275-0.294-14.446,0.165-21.607,1.569
			c-9.275,1.818-20.054,5.786-24.948,14.494c-1.76,3.131-0.771,7.177,2.363,9.013c3.057,1.791,7.255,0.763,9.012-2.362
			c0.309-0.549,0.646-1.07,1.019-1.577c-1.372,1.868,0.042,0.058,0.46-0.362c0.475-0.477,0.989-0.91,1.513-1.332
			c-1.781,1.435,0.474-0.26,0.984-0.577c1.28-0.795,2.641-1.457,4.021-2.061c-1.998,0.874,0.527-0.175,1.017-0.352
			c0.9-0.324,1.814-0.61,2.731-0.882c1.617-0.48,3.262-0.87,4.912-1.215c0.838-0.175,1.681-0.326,2.523-0.471
			c0.423-0.072,0.847-0.138,1.27-0.203c0.282-0.043,0.564-0.084,0.848-0.123c-1.045,0.139-1.205,0.16-0.48,0.068
			c3.396-0.428,6.824-0.618,10.247-0.604c3.66,0.016,7.071,0.221,10.722-0.346c3.1-0.482,6.176-1.753,8.841-3.383
			c4.859-2.971,8.68-7.541,11.302-12.553c1.93-3.686,3.604-7.854,4.291-11.994c0.491-2.959-0.281-5.83-3.027-7.438
			c-2.605-1.526-5.828-1.013-7.982,1.03c-0.281,0.267-0.566,0.524-0.859,0.777c-1.059,0.911,1.255-0.908,0.124-0.108
			c-0.612,0.434-1.269,0.802-1.935,1.147c-0.387,0.201-1.65,0.728,0.21-0.046c-0.348,0.145-0.703,0.268-1.059,0.392
			c-0.719,0.249-1.458,0.437-2.199,0.606c-0.377,0.087-0.758,0.154-1.138,0.222c-1.416,0.254,1.641-0.188,0.201-0.018
			c-0.794,0.094-1.592,0.139-2.39,0.17c-1.791,0.072-3.586-0.02-5.369-0.173c-0.517-0.044-3.367-0.396-1.204-0.104
			c-0.85-0.113-1.697-0.25-2.543-0.393c-1.69-0.283-3.371-0.623-5.047-0.979c-3.294-0.697-6.564-1.498-9.859-2.188
			c-3.271-0.684-6.604-1.232-9.948-1.33c-4.404-0.129-8.87,0.541-13.182,1.383c-4.556,0.889-9.127,2.146-13.455,3.843
			c-3.339,1.31-5.628,4.365-4.601,8.103C703.549,789.994,707.428,792.719,710.775,791.407L710.775,791.407z"/>
	</g>
	<g>
		<path fill="#6A1031" d="M687.04,753.896c5.979-1.086,11.887-2.796,17.653-4.684c12.045-3.943,24.048-9.17,34.22-16.828
			c5.312-3.998,9.931-8.441,13.854-13.823c-4.092-1.108-8.184-2.216-12.275-3.325c0.119,1.069,0.11,2.161,0.087,3.234
			c-0.026,1.232-0.116,2.461-0.247,3.687c-0.037,0.351-0.08,0.702-0.126,1.052c0.358-2.777,0.148-1.094,0.048-0.451
			c-0.138,0.873-0.303,1.741-0.485,2.605c-0.401,1.896-0.923,3.764-1.534,5.601c-0.327,0.981-0.689,1.949-1.074,2.908
			c-0.187,0.466-0.635,1.508,0.251-0.579c-0.107,0.252-0.218,0.503-0.329,0.753c-0.266,0.599-0.547,1.19-0.834,1.779
			c-1.106,2.265-2.394,4.439-3.806,6.527c-0.364,0.537-0.742,1.064-1.124,1.588c-0.195,0.268-0.395,0.532-0.595,0.796
			c1.257-1.66,0.484-0.627,0.202-0.272c-0.943,1.188-1.944,2.327-2.978,3.438c-1.54,1.653-3.188,3.205-4.897,4.682
			c-0.4,0.346-0.809,0.684-1.218,1.021c-0.343,0.282-2.212,1.726-0.587,0.483c-1.01,0.771-2.047,1.506-3.095,2.223
			c-4.746,3.244-9.883,5.891-15.172,8.125c-3.311,1.398-3.999,6.219-2.363,9.012c1.987,3.392,5.704,3.761,9.013,2.363
			c13.5-5.704,25.599-14.428,34.007-26.544c5.426-7.819,8.556-16.853,9.768-26.236c0.329-2.544,0.549-5.229,0.263-7.793
			c-0.33-2.959-1.772-5.509-4.835-6.352c-3.069-0.844-5.675,0.607-7.439,3.027c-0.219,0.301-0.44,0.599-0.665,0.896
			c1.197-1.585,0.372-0.49,0.105-0.161c-0.471,0.583-0.963,1.149-1.461,1.709c-1.088,1.225-2.25,2.384-3.446,3.503
			c-1.116,1.045-2.284,2.036-3.475,2.997c-0.319,0.257-1.433,1.115,0.121-0.081c-0.306,0.235-0.615,0.465-0.925,0.696
			c-0.724,0.539-1.461,1.059-2.204,1.571c-5.258,3.63-10.958,6.603-16.799,9.174c-0.339,0.149-0.679,0.295-1.019,0.441
			c-1.262,0.542,1.482-0.62,0.221-0.093c-0.669,0.279-1.341,0.549-2.013,0.818c-1.412,0.563-2.834,1.098-4.263,1.616
			c-2.515,0.913-5.056,1.751-7.613,2.535c-3.717,1.14-7.478,2.145-11.271,3.001c-1.045,0.236-2.094,0.467-3.148,0.658
			c-3.536,0.642-5.488,4.877-4.601,8.103C679.952,752.985,683.511,754.537,687.04,753.896L687.04,753.896z"/>
	</g>
	<g>
		<path fill="#6A1031" d="M653.248,731.814c5.057-5.057,10.025-10.204,14.952-15.387c8.459-8.901,16.913-17.907,24.513-27.564
			c1.56-1.982,3.104-3.982,4.537-6.058c-4.092-1.108-8.184-2.216-12.274-3.325c-0.002,2.075-0.11,4.152-0.233,6.223
			c-0.133,2.24-0.316,4.477-0.537,6.709c-0.133,1.337-0.283,2.672-0.446,4.006c-0.043,0.353-0.088,0.705-0.133,1.057
			c-0.175,1.359,0.23-1.684,0.043-0.311c-0.119,0.868-0.247,1.733-0.38,2.599c-1.025,6.707-2.481,13.356-4.497,19.837
			c-0.519,1.667-1.088,3.317-1.691,4.955c-0.302,0.819-0.621,1.632-0.947,2.442c-0.139,0.344-0.741,1.761-0.007,0.036
			c-0.17,0.4-0.347,0.797-0.523,1.195c-1.453,3.264-3.156,6.417-5.118,9.404c-1.973,3.005-0.611,7.269,2.363,9.012
			c3.22,1.886,7.045,0.632,9.012-2.363c7.975-12.143,11.904-26.798,14.112-41.016c1.217-7.833,2.151-15.843,2.156-23.786
			c0.002-2.929-2.012-5.575-4.835-6.352c-3.013-0.829-5.743,0.572-7.438,3.027c-0.607,0.879-1.235,1.744-1.875,2.6
			c-0.332,0.444-1.694,2.202-0.225,0.308c-0.448,0.578-0.902,1.15-1.359,1.721c-1.806,2.256-3.673,4.464-5.561,6.651
			c-4.18,4.842-8.495,9.566-12.856,14.245c-6.327,6.787-12.768,13.47-19.305,20.055c-0.254,0.255-0.507,0.51-0.761,0.764
			c-2.538,2.538-2.538,6.777,0,9.315C646.471,734.352,650.711,734.353,653.248,731.814L653.248,731.814z"/>
	</g>
	<path fill="#FFFFFF" d="M599.451,788.844c6.75-4.32-6.691-22.584-12.129-17.983C581.886,775.461,588.995,795.535,599.451,788.844z"
		/>
	<path fill="#FFFFFF" d="M564.707,797.986c-4.375,4.559,10.738,14.912,14.587,9.14S568.4,794.138,564.707,797.986z"/>
	<path fill="#FFFFFF" d="M670.024,788.844c6.75-4.32-6.691-22.584-12.128-17.983C652.459,775.461,659.568,795.535,670.024,788.844z"
		/>
	<path fill="#FFFFFF" d="M635.28,797.986c-4.375,4.559,10.739,14.912,14.587,9.14S638.973,794.138,635.28,797.986z"/>
</g>
</svg>
